<?xml version="1.0" encoding="UTF-8"?>
<svg width="48" height="48" version="1.1" xml:space="preserve" xmlns="http://www.w3.org/2000/svg" xmlns:cc="http://creativecommons.org/ns#" xmlns:dc="http://purl.org/dc/elements/1.1/" xmlns:rdf="http://www.w3.org/1999/02/22-rdf-syntax-ns#" xmlns:xlink="http://www.w3.org/1999/xlink"><defs><linearGradient id="linearGradient3688-166-749"><stop stop-color="#181818" offset="0"/><stop stop-color="#181818" stop-opacity="0" offset="1"/></linearGradient><radialGradient id="radialGradient3013-6" cx="4.993" cy="43.5" r="2.5" gradientTransform="matrix(2.0038 0 0 .9 29.988 4.85)" gradientUnits="userSpaceOnUse" xlink:href="#linearGradient3688-166-749"/><radialGradient id="radialGradient3015-1" cx="4.993" cy="43.5" r="2.5" gradientTransform="matrix(2.0038 0 0 .9 -18.012 -83.15)" gradientUnits="userSpaceOnUse" xlink:href="#linearGradient3688-166-749"/><linearGradient id="linearGradient3058-5" x1="39" x2="39" y1="6" y2="41.945" gradientTransform="translate(4e-6 1)" gradientUnits="userSpaceOnUse"><stop stop-color="#fff" offset="0"/><stop stop-color="#fff" stop-opacity=".23529" offset=".067816"/><stop stop-color="#fff" stop-opacity=".15686" offset=".94694"/><stop stop-color="#fff" stop-opacity=".39216" offset="1"/></linearGradient><linearGradient id="linearGradient1191" x1="25.058" x2="25.058" y1="47.028" y2="39.999" gradientTransform="matrix(1.1429 0 0 .64286 -3.4286 16.036)" gradientUnits="userSpaceOnUse"><stop stop-color="#181818" stop-opacity="0" offset="0"/><stop stop-color="#181818" offset=".5"/><stop stop-color="#181818" stop-opacity="0" offset="1"/></linearGradient><linearGradient id="linearGradient930-9-2" x1="16.768" x2="16.768" y1="2.7677" y2="29.514" gradientTransform="matrix(1.4444 0 0 1.4444 .88891 1.8889)" gradientUnits="userSpaceOnUse"><stop stop-color="#efdfc4" offset="0"/><stop stop-color="#e7c591" offset="1"/></linearGradient><radialGradient id="radialGradient-9-0-5-6" cx="9.6924" cy="41.272" r="29.069" gradientTransform="matrix(1.2897 0 0 .77539 57.5 70.867)" gradientUnits="userSpaceOnUse"><stop offset="0"/><stop stop-opacity="0" offset="1"/></radialGradient><filter id="filter-10-6-6-8" x="-.2087" y="-.48" width="1.4174" height="1.96"><feGaussianBlur in="SourceGraphic" stdDeviation="2"/></filter><linearGradient id="linearGradient4" x1="-18.583" x2="-18.583" y1="-52.039" y2="-13.937" gradientTransform="translate(38,58)" gradientUnits="userSpaceOnUse"><stop stop-color="#9bdb4d" offset="0"/><stop stop-color="#68b723" offset="1"/></linearGradient><linearGradient id="linearGradient6" x1="-20.901" x2="-20.901" y1="12.381" y2="34.212" gradientTransform="matrix(.98968 0 0 .99234 44.5 -.198)" gradientUnits="userSpaceOnUse"><stop stop-color="#fff" offset="0"/><stop stop-color="#fff" stop-opacity=".23529" offset=".40658"/><stop stop-color="#fff" stop-opacity=".15686" offset=".72684"/><stop stop-color="#fff" stop-opacity=".39216" offset="1"/></linearGradient><linearGradient id="linearGradient13" x1="26" x2="38" y1="26" y2="26" gradientTransform="matrix(.66667 0 0 .66667 -42.333 6.5212)" gradientUnits="userSpaceOnUse"><stop stop-color="#a10705" offset="0"/><stop stop-color="#7a0000" offset="1"/></linearGradient><linearGradient id="linearGradient1" x1="80.87" x2="80.87" y1="16.964" y2="69.711" gradientTransform="matrix(.96882 0 0 .97366 -49.976 -5.3455)" gradientUnits="userSpaceOnUse"><stop stop-color="#ed5353" offset="0"/><stop stop-color="#cf3137" offset=".53066"/><stop stop-color="#7a0000" offset="1"/></linearGradient><linearGradient id="linearGradient2" x1="84.344" x2="84.344" y1="44.901" y2="69.672" gradientTransform="matrix(.96882 0 0 .97366 -49.976 -5.3455)" gradientUnits="userSpaceOnUse"><stop stop-color="#a10705" stop-opacity=".5" offset="0"/><stop stop-color="#7a0000" offset="1"/></linearGradient><linearGradient id="linearGradient5" x1="-70.617" x2="-70.617" y1="8.5871" y2="36.121" gradientTransform="translate(49.448 -6.2279)" gradientUnits="userSpaceOnUse"><stop stop-color="#ffe16b" offset="0"/><stop stop-color="#f9c440" offset="1"/></linearGradient><linearGradient id="linearGradient8" x1="39" x2="39" y1="6" y2="41.945" gradientTransform="translate(4e-6 1)" gradientUnits="userSpaceOnUse"><stop stop-color="#fff" offset="0"/><stop stop-color="#fff" stop-opacity=".23529" offset="1e-4"/><stop stop-color="#fff" stop-opacity=".15686" offset=".97885"/><stop stop-color="#fff" stop-opacity=".39216" offset="1"/></linearGradient></defs><metadata><rdf:RDF><cc:Work rdf:about=""><dc:format>image/svg+xml</dc:format><dc:type rdf:resource="http://purl.org/dc/dcmitype/StillImage"/></cc:Work></rdf:RDF></metadata><g><rect x="40" y="41.75" width="5" height="4.5" fill="url(#radialGradient3013-6)" opacity=".6"/><rect transform="scale(-1)" x="-8" y="-46.25" width="5" height="4.5" fill="url(#radialGradient3015-1)" opacity=".6"/><rect x="8" y="41.75" width="32" height="4.5" fill="url(#linearGradient1191)" opacity=".6"/><rect x="4.5" y="5.5" width="39" height="39" rx="4" ry="4" color="#000000" fill="url(#linearGradient930-9-2)" stop-color="#000000" style="font-variation-settings:normal"/><path d="m19.609 5.5c0.84162 2.1999 1.7758 4.3674 2.6367 6.5605-5.9125 2.1337-11.834 4.245-17.746 6.3789v8.2637l20.658-7.4238c1.2232 2.9657 2.3641 5.983 3.6387 8.916 0.6959 0.83144 1.8492 1.0458 2.7539 1.5957 1.8476 0.87988 3.6693 1.8536 5.5332 2.6758 1.0347 0.1596 2.0074-0.41891 3.0137-0.5957 1.133-0.31105 2.2672-0.61568 3.4023-0.91992v-8.0508l-7.6582 2.0664-3.3574-8.3223c3.6669-1.3331 7.3506-2.6232 11.016-3.9609v-3.1836c0-1.9473-1.377-3.5611-3.2148-3.9238l-10.713 3.8496c-0.54284-1.3008-1.0562-2.6152-1.5781-3.9258h-8.3848z" fill="#cfa25e" opacity=".15" stop-color="#000000" stroke-linecap="round" stroke-linejoin="round" style="-inkscape-stroke:none;font-variation-settings:normal"/><path d="m20.678 5.5 2.8848 7.1504-19.062 6.8516v6.1387l21.227-7.6289 3.9297 9.7363 7.7676 3.8105 6.0762-1.6406v-5.9824l-8.2539 2.2266-4.0781-10.107 12.332-4.4336v-2.1211c0-1.4127-0.72447-2.65-1.8242-3.3613l-12.672 4.5547-2.0957-5.1934h-6.2305z" fill="#b6802e" opacity=".2" stop-color="#000000" stroke-linecap="round" stroke-linejoin="round" style="-inkscape-stroke:none;font-variation-settings:normal"/><path d="m33.641 29.195-29.141 6.375v4.9297c0 2.216 1.784 4 4 4h31c0.28073 0 0.55425-0.029473 0.81836-0.083984l-6.6777-15.221z" fill="url(#linearGradient4)" stop-color="#000000" style="-inkscape-stroke:none;font-variation-settings:normal"/><path d="m34.795 25.201c-0.15026-0.0057-0.30471 0.02728-0.46484 0.12109l-29.83 8.0371v7.1406c0 0.30476 0.03369 0.60182 0.097656 0.88672l12.944-3.4935c0.1333-0.03598 0.27532 0.04151 0.31714 0.1731 0.68064 2.1417 1.347 4.2885 2.018 6.4336h8.1562l-2.7344-8.6992 5.8301-1.5742c1.387 3.422 2.7631 6.8482 4.1426 10.273h4.2285c1.4387 0 2.6958-0.75281 3.4004-1.8867l-6.8027-16.857c-0.43591-0.16685-0.85196-0.5376-1.3027-0.55469z" fill="#3a9104" opacity=".15" stop-color="#000000" stroke-linecap="round" stroke-linejoin="round" style="-inkscape-stroke:none;font-variation-settings:normal"/><path d="m35.17 26.131-30.67 8.2637v5.9824l12.984-3.5032a1.0418 1.0418 28.727 0 1 1.2653 0.6935l2.1787 6.9327h6.0586l-2.9531-9.3926 7.6914-2.0762 4.6289 11.469h3.1465c1.0285 0 1.9647-0.38414 2.6719-1.0176z" fill="#3a9104" opacity=".3" stop-color="#000000" stroke-linecap="round" stroke-linejoin="round" style="-inkscape-stroke:none;font-variation-settings:normal"/></g><path d="m8.6431 58.251 14.247 35.304" fill="#ffe16b" stop-color="#000000" stroke-linecap="round" stroke-linejoin="round"/><path transform="matrix(1.4444 0 0 1.4444 65.889 1.8889)" d="m-17.685 2.5622-24.815 8.9202v4.2499l27-9.7058v-0.75721c0-1.333-0.93288-2.4396-2.1837-2.707-4.33e-4 -9.24e-5 -9.2e-4 9.22e-5 -0.0014 0zm2.1851 11.957-27 7.2841v4.1444l8.7314-2.357a1.4423 1.4423 28.725 0 1 1.7518 0.96009l1.555 4.949h4.1944l-2.2987-7.3125 13.066-3.5264z" fill="#fafafa" stop-color="#000000" stroke-linecap="round" stroke-linejoin="round" stroke-width=".69231"/><g fill="none"><path d="m21.682 5.5h-13.182c-2.216 0-4 1.784-4 4v29.808m38.393 3.3186c0.38531-0.61521 0.60742-1.3445 0.60742-2.127v-31c0-2.216-1.784-4-4-4h-11.588" color="#000000" opacity=".5" stop-color="#000000" stroke="#b6802e" stroke-linejoin="round" style="-inkscape-stroke:none;font-variation-settings:normal"/><rect x="5.5" y="6.5" width="37" height="37" rx="3" ry="3" opacity=".4" stroke="url(#linearGradient3058-5)" stroke-linecap="round" stroke-linejoin="round"/><path d="m4.5 39.308v1.1916c0 2.216 1.784 4 4 4h28.547" stop-color="#000000" stroke="#3a9104" stroke-opacity=".5" style="-inkscape-stroke:none;font-variation-settings:normal"/></g><path transform="matrix(1.4444 0 0 1.4444 65.889 1.8889)" d="m-30.605 2.5 10.896 27h1.4401c0.9925 0 1.86-0.51633 2.3487-1.2967l-10.371-25.703h-4.3134z" fill="url(#linearGradient5)" stop-color="#000000" stroke="#d48e15" stroke-linecap="round" stroke-linejoin="round" stroke-opacity=".5" stroke-width=".69231" style="-inkscape-stroke:none;font-variation-settings:normal"/><path d="m38.096 43.5c1.2239 0.03722 2.6524 0.11276 3.5473-0.89884 0.1921-0.46579-0.38571-1.0806-0.48584-1.6025-4.6403-11.5-9.2805-22.999-13.921-34.499h-4.0723c4.9772 12.333 9.9544 24.667 14.932 37z" fill="none" opacity=".6" stop-color="#000000" stroke="url(#linearGradient8)" stroke-linecap="round" style="-inkscape-stroke:none;font-variation-settings:normal"/><ellipse transform="matrix(.69091 0 0 .69091 -24.364 -37.182)" cx="70" cy="102.87" rx="11.5" ry="5" fill="url(#radialGradient-9-0-5-6)" filter="url(#filter-10-6-6-8)" opacity=".3" stroke-width="1.4474"/><g><path d="m23.549 19.022c-3.4052 0.11277-6.9154 1.9194-8.4253 5.0731-1.3225 2.6754-0.62989 6.0993 1.4972 8.1578 1.3409 1.2689 2.8258 2.3765 4.2178 3.5888 0.81399 0.71188 1.7263 1.4427 2.863 1.4643 1.1954 0.11717 2.3569-0.40986 3.1912-1.2462 1.5275-1.3015 3.1223-2.5308 4.588-3.9009 1.9657-2.0164 2.6767-5.2201 1.5016-7.8182-1.5521-3.5919-5.6616-5.5023-9.4336-5.3187z" fill="#ff8c82" opacity=".12572" style="-inkscape-stroke:none;font-variation-settings:normal"/><path d="m23.562 19.713c-3.1664 0.10231-6.1612 1.7594-7.5286 4.1451-1.4666 2.4419-1.1081 5.5519 0.89063 7.7143 0.7723 0.83932 1.7559 1.52 2.6237 2.2875 0.92062 0.748 1.7931 1.5406 2.7441 2.2605 1.0048 0.72254 2.6284 0.65876 3.5764-0.10676 1.5961-1.331 3.2021-2.6554 4.7815-3.9998 2.0801-1.9387 2.7754-4.8223 1.7487-7.2812-1.0043-2.5529-3.7991-4.5315-6.9804-4.9341-0.61288-0.08392-1.2359-0.10782-1.8561-0.08564z" fill="#ff8c82" opacity=".33404" style="-inkscape-stroke:none;font-variation-settings:normal"/><path transform="matrix(.50896 0 0 .42523 7.7132 15.206)" d="m31.999 12c-8.8359 4.48e-4 -15.999 7.1632-15.999 15.999-8.9e-5 4.4905 1.8869 8.7744 5.2001 11.805l8.0165 8.0179a3.9351 3.9351 0.0024484 0 0 5.5652 2.38e-4l8.0181-8.0181c3.3132-3.0311 5.2002-7.3149 5.2001-11.805-4.47e-4 -8.8366-7.1643-16-16.001-15.999z" fill="#ed5353" opacity=".3" style="-inkscape-stroke:none;font-variation-settings:normal"/><path transform="matrix(.65671 0 0 .67582 2.9852 2.3974)" d="m31.999 12c-8.8359 4.48e-4 -15.999 7.1632-15.999 15.999-8.9e-5 4.4905 1.8869 8.7744 5.2001 11.805l8.0165 8.0179a3.9351 3.9351 0.0024484 0 0 5.5652 2.38e-4l8.0181-8.0181c3.3132-3.0311 5.2002-7.3149 5.2001-11.805-4.47e-4 -8.8366-7.1643-16-16.001-15.999z" fill="url(#linearGradient1)" stop-color="#000000" stroke="url(#linearGradient2)" stroke-linecap="round" stroke-linejoin="round" stroke-width="1.501" style="-inkscape-stroke:none;font-variation-settings:normal"/></g><path d="m23.505 11.535c-3.5335 0.14617-6.8496 2.5235-8.2339 5.8675-1.4699 3.3761-0.84457 7.5744 1.5414 10.342 1.998 2.1048 4.0372 4.1733 6.0628 6.2506 0.66732 0.70809 1.85 0.57741 2.4314-0.17889 1.9543-2.028 3.9425-4.0238 5.8787-6.0687 2.4132-2.7963 3.0262-7.056 1.4979-10.45-1.4479-3.3985-4.9069-5.7581-8.5175-5.7718-0.22022-0.01014-0.44045 0.0056-0.66067 0.0088z" fill="none" opacity=".3" stop-color="#000000" stroke="url(#linearGradient6)" stroke-linecap="round" stroke-linejoin="round" style="-inkscape-stroke:none;font-variation-settings:normal"/><circle transform="rotate(-90)" cx="-21" cy="23.854" r="4" fill="url(#linearGradient13)" style="-inkscape-stroke:none;font-variation-settings:normal"/><circle cx="23.854" cy="22" r="4" fill="#fafafa" opacity=".1" style="-inkscape-stroke:none;font-variation-settings:normal"/></svg>
