<?xml version="1.0" encoding="UTF-8"?>
<svg width="24" height="24" version="1.1" xml:space="preserve" xmlns="http://www.w3.org/2000/svg" xmlns:cc="http://creativecommons.org/ns#" xmlns:dc="http://purl.org/dc/elements/1.1/" xmlns:rdf="http://www.w3.org/1999/02/22-rdf-syntax-ns#" xmlns:xlink="http://www.w3.org/1999/xlink"><defs><linearGradient id="linearGradient3233" x1="24" x2="24" y1="6.5493" y2="41.229" gradientTransform="matrix(.45946 0 0 .45946 .97422 .97173)" gradientUnits="userSpaceOnUse" xlink:href="#linearGradient4095"/><linearGradient id="linearGradient4095"><stop stop-color="#fff" offset="0"/><stop stop-color="#fff" stop-opacity=".23529" offset=".031187"/><stop stop-color="#fff" stop-opacity=".15686" offset=".98002"/><stop stop-color="#fff" stop-opacity=".39216" offset="1"/></linearGradient><radialGradient id="radialGradient3082-6" cx="4.993" cy="43.5" r="2.5" gradientTransform="matrix(2.0038 0 0 1.4 27.988 -17.4)" gradientUnits="userSpaceOnUse"><stop stop-color="#181818" offset="0"/><stop stop-color="#181818" stop-opacity="0" offset="1"/></radialGradient><radialGradient id="radialGradient3084-4" cx="4.993" cy="43.5" r="2.5" gradientTransform="matrix(2.0038 0 0 1.4 -20.012 -104.4)" gradientUnits="userSpaceOnUse"><stop stop-color="#181818" offset="0"/><stop stop-color="#181818" stop-opacity="0" offset="1"/></radialGradient><linearGradient id="linearGradient3086-8" x1="25.058" x2="25.058" y1="47.028" y2="39.999" gradientUnits="userSpaceOnUse"><stop stop-color="#181818" stop-opacity="0" offset="0"/><stop stop-color="#181818" offset=".5"/><stop stop-color="#181818" stop-opacity="0" offset="1"/></linearGradient><linearGradient id="linearGradient871" x1="11.428" x2="11.428" y1="2.5263" y2="21.451" gradientUnits="userSpaceOnUse"><stop stop-color="#efdfc4" offset="0"/><stop stop-color="#e7c591" offset="1"/></linearGradient><radialGradient id="radialGradient-9-0-5-6" cx="9.6924" cy="41.272" r="29.069" gradientTransform="matrix(1.2897 0 0 .77539 19.5 42.867)" gradientUnits="userSpaceOnUse"><stop offset="0"/><stop stop-opacity="0" offset="1"/></radialGradient><filter id="filter-10-6-6-8" x="-.2087" y="-.48" width="1.4174" height="1.96"><feGaussianBlur in="SourceGraphic" stdDeviation="2"/></filter><linearGradient id="linearGradient1" x1="8.5841" x2="8.5841" y1="-26.998" y2="-8.6478" gradientTransform="translate(0,30)" gradientUnits="userSpaceOnUse"><stop stop-color="#9bdb4d" offset="0"/><stop stop-color="#68b723" offset="1"/></linearGradient><linearGradient id="linearGradient69" x1="-23.337" x2="-23.337" y1="13.501" y2="32.995" gradientTransform="matrix(.49484 0 0 .49617 23.657 -.59897)" gradientUnits="userSpaceOnUse"><stop stop-color="#fff" offset="0"/><stop stop-color="#fff" stop-opacity=".23529" offset=".40658"/><stop stop-color="#fff" stop-opacity=".15686" offset=".72684"/><stop stop-color="#fff" stop-opacity=".39216" offset="1"/></linearGradient><linearGradient id="linearGradient13" x1="26" x2="38" y1="26" y2="26" gradientTransform="matrix(.33333 0 0 .33333 -20.667 3.2606)" gradientUnits="userSpaceOnUse"><stop stop-color="#a10705" offset="0"/><stop stop-color="#7a0000" offset="1"/></linearGradient><linearGradient id="linearGradient68-6" x1="31.998" x2="31.998" y1="12.058" y2="62.094" gradientTransform="matrix(.96882 0 0 .97366 .99762 -1.1826)" gradientUnits="userSpaceOnUse"><stop stop-color="#ed5353" offset="0"/><stop stop-color="#cf3137" offset=".53066"/><stop stop-color="#7a0000" offset="1"/></linearGradient><linearGradient id="linearGradient9" x1="42.683" x2="42.683" y1="38.574" y2="62.184" gradientTransform="matrix(.96882 0 0 .97366 .99762 -1.1826)" gradientUnits="userSpaceOnUse"><stop stop-color="#a10705" stop-opacity=".5" offset="0"/><stop stop-color="#7a0000" offset="1"/></linearGradient><linearGradient id="linearGradient3" x1="-45.87" x2="-45.87" y1="25.713" y2="44.765" gradientTransform="translate(58.551 -23.238)" gradientUnits="userSpaceOnUse"><stop stop-color="#ffe16b" offset="0"/><stop stop-color="#f9c440" offset="1"/></linearGradient></defs><metadata><rdf:RDF><cc:Work rdf:about=""><dc:format>image/svg+xml</dc:format><dc:type rdf:resource="http://purl.org/dc/dcmitype/StillImage"/></cc:Work></rdf:RDF></metadata><g transform="matrix(.55 0 0 .33333 -1.2 7.3333)"><g transform="matrix(1.0526 0 0 1.2857 -1.2632 -13.429)" opacity=".4"><rect x="38" y="40" width="5" height="7" fill="url(#radialGradient3082-6)"/><rect transform="scale(-1)" x="-10" y="-47" width="5" height="7" fill="url(#radialGradient3084-4)"/><rect x="10" y="40" width="28" height="7" fill="url(#linearGradient3086-8)"/></g></g><g><rect x="2.5" y="2.5" width="19" height="19" rx="2" ry="2" color="#000000" fill="url(#linearGradient871)"/><path d="m8.7617 2.5c0.029601 0.30293 0.11745 0.60203 0.27344 0.87891l1.0937 2.7051c-2.5358 0.9292-5.0899 1.815-7.6289 2.7363v5.123c0.040993-0.01549 0.082575-0.03195 0.12305-0.046875l9.3066-3.3438c0.54718 1.2897 1.011 2.6315 1.6094 3.8887 0.66668 0.81088 1.7803 1.0243 2.6523 1.5605 0.89011 0.40861 1.828 1.1569 2.8457 0.68945 0.81667-0.23364 1.6399-0.44886 2.4629-0.66406v-4.9824l-3.7676 1.0156c-0.42188-1.0462-0.84375-2.0924-1.2656-3.1387 1.6666-0.62902 3.3684-1.1773 5.0332-1.8105v-2.6113c0-0.95872-0.66866-1.7558-1.5664-1.9531-0.28117 0.10698-0.55664 0.21637-0.82227 0.30664l-4.4453 1.5996c-0.29286-0.63179-0.52354-1.299-0.77539-1.9531h-5.1289z" fill="#d48e15" opacity=".15" stop-color="#000000" stroke-linecap="round" stroke-linejoin="round" style="-inkscape-stroke:none;font-variation-settings:normal"/><path d="m9.7812 2.5c0.016678 0.07564 0.040368 0.15039 0.070312 0.22461l1.5937 3.9473-8.9453 3.2148v2.9902l9.998-3.5937 1.9004 4.709 3.8008 1.8906 3.3008-0.89062v-2.916l-4.3633 1.1777-1.9863-4.9238 6.3496-2.2812v-1.5488c0-0.48628-0.1725-0.93142-0.45898-1.2773l-6.9434 2.4961-1.2988-3.2188h-3.0176z" fill="#d48e15" opacity=".3" stop-color="#000000" stroke-linecap="round" stroke-linejoin="round" style="-inkscape-stroke:none;font-variation-settings:normal"/><path d="m16.48 13.848-13.98 3.9844v1.668c0 1.108 0.892 2 2 2h15c0.098753 0 0.19617-0.007791 0.29102-0.021484l-3.3105-7.6309z" fill="url(#linearGradient1)" stop-color="#000000" style="-inkscape-stroke:none;font-variation-settings:normal"/><path d="m14.197 13.012c-0.24505-0.010963-0.49362 0.029619-0.74805 0.14648l-10.949 2.9551v3.3867c0 0.56464 0.23163 1.0726 0.60547 1.4355l5.1113-1.3789c0.21342 0.64433 0.41608 1.2935 0.61523 1.9434h5.041l-1.0059-3.1992 1.8867-0.50976c0.50619 1.2329 1.0032 2.4708 1.498 3.709h3.248c0.66528 0 1.252-0.32152 1.6152-0.81836-0.70579-1.7681-1.4148-3.5335-2.168-5.2715-0.66668-0.81088-1.7803-1.0243-2.6523-1.5605-0.66758-0.30645-1.3625-0.805-2.0977-0.83789z" fill="#3a9104" opacity=".15" stop-color="#000000" stroke-linecap="round" stroke-linejoin="round" style="-inkscape-stroke:none;font-variation-settings:normal"/><path d="m14.287 13.967-11.787 3.1816v2.3516c0 0.18875 0.025788 0.37205 0.074219 0.54492l6.3086-1.7031 0.99219 3.1582h2.9512l-1.2246-3.8926 3.748-1.0117 1.9785 4.9043h2.1719c0.28406 0 0.55456-0.0582 0.79883-0.16406l-2.2109-5.4785-3.8008-1.8906z" fill="#3a9104" opacity=".3" stop-color="#000000" stroke-linecap="round" stroke-linejoin="round" style="-inkscape-stroke:none;font-variation-settings:normal"/></g><path d="m19.947 2.5488-17.447 6.2715v2.9902l19-6.8281v-0.48242c0-0.95441-0.66109-1.7493-1.5527-1.9512zm1.5527 8.4082-19 5.127v2.916l6.1205-1.6516a1.0418 1.0418 28.725 0 1 1.2653 0.69346l1.0869 3.4581h2.9492l-1.6172-5.1465 9.1953-2.4805z" fill="#fafafa" stop-color="#000000" stroke-linecap="round" stroke-linejoin="round"/><g fill="none"><path d="m10.689 2.5h-6.1889c-1.108 0-2 0.892-2 2v14.473m18.695 1.5891c0.19286-0.30772 0.30469-0.67105 0.30469-1.0625v-15c0-1.108-0.892-2-2-2h-5.5938" color="#000000" opacity=".5" stop-color="#000000" stroke="#b6802e" stroke-linejoin="round" style="-inkscape-stroke:none;font-variation-settings:normal"/><rect x="3.5012" y="3.4988" width="17" height="17" rx="1" ry="1" opacity=".4" stroke="url(#linearGradient3233)" stroke-linecap="round" stroke-linejoin="round"/><path d="m2.5 18.973v0.52659c0 1.108 0.892 2 2 2h13.769" stop-color="#000000" stroke="#3a9104" stroke-opacity=".5" style="-inkscape-stroke:none;font-variation-settings:normal"/></g><path d="m10.869 2.5 7.668 19h0.96289c0.71602 0 1.3421-0.37296 1.6953-0.93555l-7.2891-18.064h-3.0371z" fill="url(#linearGradient3)" stop-color="#000000" stroke="#d48e15" stroke-linecap="round" stroke-linejoin="round" stroke-opacity=".5" style="-inkscape-stroke:none;font-variation-settings:normal"/><ellipse transform="matrix(.34545 0 0 .34545 .94545 -9.4182)" cx="32" cy="74.867" rx="11.5" ry="5" fill="url(#radialGradient-9-0-5-6)" filter="url(#filter-10-6-6-8)" opacity=".3" stroke-width="2.8947"/><path transform="matrix(.34383 0 0 .35137 .99751 .28902)" d="m31.999 12c-8.8359 4.48e-4 -15.999 7.1632-15.999 15.999-8.9e-5 4.4905 1.8869 8.7744 5.2001 11.805l8.0165 8.0179a3.9351 3.9351 0.0024484 0 0 5.5652 2.38e-4l8.0181-8.0181c3.3132-3.0311 5.2002-7.3149 5.2001-11.805-4.47e-4 -8.8366-7.1643-16-16.001-15.999z" fill="url(#linearGradient68-6)" stop-color="#000000" stroke="url(#linearGradient9)" stroke-linecap="round" stroke-linejoin="round" stroke-width="2.877" style="-inkscape-stroke:none;font-variation-settings:normal"/><path d="m11.76 5.5232c-1.7908 0.072192-3.4526 1.3547-4.0224 3.0889-0.59293 1.6849-0.10395 3.6926 1.1946 4.8953 0.96345 0.96597 1.8973 1.9654 2.8748 2.9151 0.32529 0.20097 0.57383-0.1845 0.78066-0.38321 0.94028-0.97085 1.9009-1.9225 2.8296-2.9042 1.1986-1.3848 1.4399-3.5287 0.57557-5.1536-0.79078-1.5713-2.5057-2.5711-4.2328-2.4584z" fill="none" opacity=".3" stop-color="#000000" stroke="url(#linearGradient69)" stroke-linecap="round" stroke-linejoin="round" style="-inkscape-stroke:none;font-variation-settings:normal"/><circle transform="rotate(-90)" cx="-10" cy="11.927" r="2" fill="url(#linearGradient13)" style="-inkscape-stroke:none;font-variation-settings:normal"/><circle cx="11.927" cy="11" r="2" fill="#fafafa" opacity=".1" style="-inkscape-stroke:none;font-variation-settings:normal"/><path d="m19.109 20.467s0.61402 0 0.8373-0.14885m-7.7776-16.82h1.3583" fill="none" opacity=".6" stroke="url(#linearGradient3233)" stroke-linecap="square" style="-inkscape-stroke:none;font-variation-settings:normal"/></svg>
