<?xml version="1.0" encoding="UTF-8"?>
<svg width="128" height="128" version="1.1" xml:space="preserve" xmlns="http://www.w3.org/2000/svg" xmlns:cc="http://creativecommons.org/ns#" xmlns:dc="http://purl.org/dc/elements/1.1/" xmlns:rdf="http://www.w3.org/1999/02/22-rdf-syntax-ns#" xmlns:xlink="http://www.w3.org/1999/xlink"><defs><linearGradient id="linearGradient3159" x1="24" x2="24" y1="5" y2="43" gradientTransform="matrix(2.7297 0 0 2.7297 -1.5135 1.4865)" gradientUnits="userSpaceOnUse"><stop stop-color="#fff" offset="0"/><stop stop-color="#fff" stop-opacity=".23529" offset=".063165"/><stop stop-color="#fff" stop-opacity=".15686" offset=".95056"/><stop stop-color="#fff" stop-opacity=".39216" offset="1"/></linearGradient><radialGradient id="radialGradient2455-1" cx="4.993" cy="43.5" r="2.5" gradientTransform="matrix(2.0038 0 0 1.4 27.988 -17.4)" gradientUnits="userSpaceOnUse"><stop stop-color="#181818" offset="0"/><stop stop-color="#181818" stop-opacity="0" offset="1"/></radialGradient><radialGradient id="radialGradient2457-5" cx="4.993" cy="43.5" r="2.5" gradientTransform="matrix(2.0038 0 0 1.4 -20.012 -104.4)" gradientUnits="userSpaceOnUse"><stop stop-color="#181818" offset="0"/><stop stop-color="#181818" stop-opacity="0" offset="1"/></radialGradient><linearGradient id="linearGradient2459-7" x1="25.058" x2="25.058" y1="47.028" y2="39.999" gradientUnits="userSpaceOnUse"><stop stop-color="#181818" stop-opacity="0" offset="0"/><stop stop-color="#181818" offset=".5"/><stop stop-color="#181818" stop-opacity="0" offset="1"/></linearGradient><radialGradient id="radialGradient4377" cx="-4.0288" cy="93.468" r="35.338" gradientTransform="matrix(1.5564 0 0 .16979 70.27 102.13)" gradientUnits="userSpaceOnUse"><stop offset="0"/><stop stop-opacity="0" offset="1"/></radialGradient><linearGradient id="linearGradient882" x1="62.872" x2="62.872" y1="15.907" y2="118.43" gradientUnits="userSpaceOnUse"><stop stop-color="#efdfc4" offset="0"/><stop stop-color="#e7c591" offset="1"/></linearGradient><linearGradient id="linearGradient65" x1="25.15" x2="25.15" y1="5.0301" y2="59.232" gradientTransform="matrix(1.8727 0 0 1.8727 4.0727 7.0727)" gradientUnits="userSpaceOnUse"><stop stop-color="#9bdb4d" offset="0"/><stop stop-color="#68b723" offset="1"/></linearGradient><radialGradient id="radialGradient-9-0-5-6" cx="9.6924" cy="41.272" r="29.069" gradientTransform="matrix(1.2897 0 0 .77539 173.5 12.867)" gradientUnits="userSpaceOnUse"><stop offset="0"/><stop stop-opacity="0" offset="1"/></radialGradient><filter id="filter-10-6-6-8" x="-.2087" y="-.48" width="1.4174" height="1.96"><feGaussianBlur in="SourceGraphic" stdDeviation="2"/></filter><linearGradient id="linearGradient69" x1="62.343" x2="62.343" y1="11.325" y2="34.831" gradientTransform="matrix(2.6826 0 0 2.6898 -102.38 -1.2998)" gradientUnits="userSpaceOnUse"><stop stop-color="#fff" offset="0"/><stop stop-color="#fff" stop-opacity=".23529" offset=".40658"/><stop stop-color="#fff" stop-opacity=".15686" offset=".72684"/><stop stop-color="#fff" stop-opacity=".39216" offset="1"/></linearGradient><filter id="filter2" x="-.067861" y="-.057746" width="1.1357" height="1.1155" color-interpolation-filters="sRGB"><feGaussianBlur stdDeviation="1.6119419"/></filter><filter id="filter2-0" x="-.17536" y="-.14922" width="1.3507" height="1.2984" color-interpolation-filters="sRGB"><feGaussianBlur stdDeviation="4.1654487"/></filter><linearGradient id="linearGradient68-3" x1="11.2" x2="11.2" y1="3.3733" y2="31.064" gradientTransform="matrix(1.7813 0 0 1.8122 7 5.754)" gradientUnits="userSpaceOnUse"><stop stop-color="#ed5353" offset="0"/><stop stop-color="#cf3137" offset=".53157"/><stop stop-color="#7a0000" offset="1"/></linearGradient><linearGradient id="linearGradient9" x1="12.798" x2="12.798" y1="18.083" y2="24.129" gradientTransform="matrix(1.7813 0 0 1.8122 7 5.754)" gradientUnits="userSpaceOnUse"><stop stop-color="#a10705" stop-opacity=".5" offset="0"/><stop stop-color="#7a0000" offset="1"/></linearGradient><linearGradient id="linearGradient1" x1="144.48" x2="144.48" y1="103.48" y2="81.504" gradientTransform="translate(-74.425 -36.818)" gradientUnits="userSpaceOnUse"><stop stop-color="#a10705" offset="0"/><stop stop-color="#7a0000" offset="1"/></linearGradient><linearGradient id="linearGradient2" x1="-62.79" x2="-62.79" y1="-34.019" y2="69.184" gradientTransform="translate(161.07 49.41)" gradientUnits="userSpaceOnUse"><stop stop-color="#ffe16b" offset="0"/><stop stop-color="#f9c440" offset="1"/></linearGradient><linearGradient id="linearGradient49" x1="24" x2="24" y1="5.7469" y2="43" gradientTransform="matrix(2.7297 0 0 2.7297 -1.5135 1.4865)" gradientUnits="userSpaceOnUse"><stop stop-color="#fff" offset="0"/><stop stop-color="#fff" stop-opacity=".23529" offset="1e-4"/><stop stop-color="#fff" stop-opacity=".15686" offset=".94165"/><stop stop-color="#fff" stop-opacity=".39216" offset="1"/></linearGradient></defs><metadata><rdf:RDF><cc:Work rdf:about=""><dc:format>image/svg+xml</dc:format><dc:type rdf:resource="http://purl.org/dc/dcmitype/StillImage"/></cc:Work></rdf:RDF></metadata><path d="m119 118a55 6 0 0 1-110 0 55 6 0 1 1 110 0z" color="#000000" fill="url(#radialGradient4377)" opacity=".2"/><g transform="matrix(2.7 0 0 .55556 -.8 94.889)"><g transform="matrix(1.0526 0 0 1.2857 -1.2632 -13.429)" opacity=".4"><rect x="38" y="40" width="5" height="7" fill="url(#radialGradient2455-1)"/><rect transform="scale(-1)" x="-10" y="-47" width="5" height="7" fill="url(#radialGradient2457-5)"/><rect x="10" y="40" width="28" height="7" fill="url(#linearGradient2459-7)"/></g></g><rect x="12.5" y="15.5" width="103" height="103" rx="10" ry="10" color="#000000" fill="url(#linearGradient882)"/><path d="m73.867 15.58c-0.076608 0.002722-0.15435 0.012908-0.23633 0.033203h-17.617l4.4434 11.021-47.957 16.951v18.213c0.10613 0.012413 0.21895 0.013548 0.33789 0.001953l54.312-19.521 9.9707 24.705c0.58121 0.22243 1.1271 0.80919 1.7676 0.43359l13.404-3.6172 5.4199 13.436c0.58121 0.22243 1.1271 0.80917 1.7676 0.43359 5.3401-1.4408 10.679-2.8815 16.02-4.3223v-17.789c-0.11198-0.012479-0.2302-0.010968-0.35547 0.005859l-21.66 5.8457-10.076-24.975 31.783-11.424c0.10376-0.076014 0.19815-0.15924 0.28125-0.25-0.09495-1.3116-0.4392-2.5531-0.98828-3.6738-2.177-3.2718-5.98-5.44-9.9414-5.4688-4.7143-0.0014-9.4326-0.024482-14.145 0.011718-3.1755 1.0372-6.3053 2.2505-9.4629 3.3555l-3.9902 1.4336-1.6875-4.1816c-0.43872-0.30026-0.85437-0.67726-1.3906-0.6582z" fill="#cfa25e" opacity=".15" stop-color="#000000" stroke-linecap="round" stroke-linejoin="round" style="-inkscape-stroke:none;font-variation-settings:normal"/><path d="m56.928 15.5 4.5664 11.354-48.994 17.793v16.213l55.219-19.848 10.33 25.598 14.84-4.0039-10.797-26.76 32.762-11.775c-1.5456-4.3545-5.6923-7.457-10.59-7.457h-13.768l-14.119 5.0742-17.828-6.1875h-1.6211zm35.961 47.105 5.752 14.256 16.859-4.5488v-15.809l-22.611 6.1016z" fill="#b6802e" opacity=".2" stop-color="#000000" stroke-linecap="round" stroke-linejoin="round" style="-inkscape-stroke:none;font-variation-settings:normal"/><path d="m86.568 75.903-74.068 19.894v12.247c0 6.0732 4.383 10.456 10.196 10.456h78.001z" fill="url(#linearGradient65)" style="-inkscape-stroke:none;font-variation-settings:normal"/><path d="m77.029 65.934c-0.15025-0.0057-0.30473 0.0272-0.46484 0.12109l-64.064 17.285v17.883l32.093-8.6606c1.0664-0.28779 2.1994 0.33316 2.5305 1.3869 2.5716 8.1837 5.1433 16.367 7.7149 24.551h18.096c-3.245-10.32-6.4894-20.641-9.7344-30.961l19.283-5.2031 14.68 36.164h8.3379c3.5468 0 6.6513-1.8285 8.4258-4.5977-0.16275-0.50836-0.45189-0.99925-0.61328-1.5078-4.7961-11.885-9.5926-23.769-14.389-35.654-0.50916-0.3958-1.0236-0.77304-1.7031-0.64453l-15.154-0.35742-3.7344-9.25c-0.43591-0.16682-0.85198-0.5377-1.3027-0.55469z" fill="#3a9104" opacity=".15" stop-color="#000000" stroke-linecap="round" stroke-linejoin="round" style="-inkscape-stroke:none;font-variation-settings:normal"/><path d="m77.404 66.863-64.904 17.512v15.812l31.793-8.5797a3.1251 3.1251 28.727 0 1 3.7957 2.0804l7.796 24.812h16.002l-9.9531-31.654 21.143-5.7051 15.164 37.359h7.2598c2.5173 0 4.8122-0.9207 6.5664-2.4453 0.392-0.44612 0.74843-0.92481 1.0664-1.4297l-15.137-37.51-16.611-0.39258z" fill="#3a9104" opacity=".3" stop-color="#000000" stroke-linecap="round" stroke-linejoin="round" style="-inkscape-stroke:none;font-variation-settings:normal"/><path d="m90.496 15.5-77.996 28.032v16.214l102.35-36.789c-1.5456-4.3545-5.6914-7.458-10.589-7.458zm25.004 39.891-103 27.791v15.812l31.471-8.4933a4.1669 4.1669 28.726 0 1 5.061 2.7738l7.9268 25.226h16.002l-10.384-33.021 52.923-14.28z" fill="#fafafa" stop-color="#000000" stroke-linecap="round" stroke-linejoin="round"/><g fill="none"><rect x="13.5" y="16.5" width="101" height="101" rx="9" ry="9" opacity=".4" stroke="url(#linearGradient3159)" stroke-linecap="round" stroke-linejoin="round"/><path d="m57.873 15.5h-35.373c-5.54 0-10 4.46-10 10v73.418m101.66 14.827c0.62772-0.99665 1.336-2.8039 1.336-5.2447v-83c0-5.54-4.46-10-10-10h-31.17" color="#000000" opacity=".5" stop-color="#000000" stroke="#b6802e" stroke-linejoin="round" style="-inkscape-stroke:none;font-variation-settings:normal"/><path d="m12.5 98.919v9.5811c0 5.54 4.46 10 10 10h76.592" color="#000000" stop-color="#000000" stroke="#3a9104" stroke-opacity=".5" style="-inkscape-stroke:none;font-variation-settings:normal"/></g><path d="m57.873 15.5 41.566 103h5.7439c4.0169 0 6.8536-1.4755 8.8394-4.6285l-39.693-98.372z" fill="url(#linearGradient2)" stop-color="#000000" stroke="#d48e15" stroke-linecap="round" stroke-linejoin="round" stroke-opacity=".5" style="-inkscape-stroke:none;font-variation-settings:normal"/><path d="m100.12 117.5c2.7991-0.0799 5.9168 0.3227 8.7592-0.55581 1.9177-0.73566 2.9423-1.7342 3.9855-3.2302-12.999-32.214-26.207-65-39.206-97.214h-14.299c13.587 33.667 27.173 67.333 40.76 101z" fill="none" opacity=".6" stop-color="#000000" stroke="url(#linearGradient49)" stroke-linecap="round" stroke-linejoin="round" style="-inkscape-stroke:none;font-variation-settings:normal"/><ellipse transform="matrix(1.8727 0 0 1.8727 -284.33 5.0727)" cx="186" cy="44.867" rx="11.5" ry="5" fill="url(#radialGradient-9-0-5-6)" filter="url(#filter-10-6-6-8)" opacity=".3" stroke-width=".53398"/><path transform="matrix(.96525 0 0 .83106 2.2241 16.618)" d="m63.998 27.504c-15.741 8.11e-4 -28.502 12.979-28.503 28.988-1.59e-4 8.1363 3.3615 15.898 9.264 21.39l14.282 14.527a7.0104 7.1299 0 0 0 9.9146 4.32e-4l14.284-14.528c5.9025-5.4919 9.2642-13.254 9.264-21.39-7.96e-4 -16.011-12.763-28.989-28.506-28.988z" fill="#ed5353" filter="url(#filter2)" opacity=".55779" style="-inkscape-stroke:none;font-variation-settings:normal"/><path transform="matrix(.79149 0 0 .47677 13.344 51.293)" d="m63.998 27.504c-15.741 8.11e-4 -28.502 12.979-28.503 28.988-1.59e-4 8.1363 3.3615 15.898 9.264 21.39l14.282 14.527a7.0104 7.1299 0 0 0 9.9146 4.32e-4l14.284-14.528c5.9025-5.4919 9.2642-13.254 9.264-21.39-7.96e-4 -16.011-12.763-28.989-28.506-28.988z" fill="#a10705" filter="url(#filter2-0)" opacity=".29959" style="-inkscape-stroke:none;font-variation-settings:normal;mix-blend-mode:normal"/><path transform="matrix(1.7815 0 0 1.8119 6.9914 5.7617)" d="m31.999 12c-8.8359 4.48e-4 -15.999 7.1632-15.999 15.999-8.9e-5 4.4905 1.8869 8.7744 5.2001 11.805l8.0165 8.0179c1.5367 1.537 4.0284 1.5371 5.5652 2.38e-4l8.0181-8.0181c3.3132-3.0311 5.2002-7.3149 5.2001-11.805-4.47e-4 -8.8366-7.1643-16-16.001-15.999z" fill="url(#linearGradient68-3)" stop-color="#000000" stroke="url(#linearGradient9)" stroke-linecap="round" stroke-linejoin="round" stroke-width=".55659" style="-inkscape-stroke:none;font-variation-settings:normal"/><path d="m62.559 28.552c-10.105 0.42329-19.616 7.0737-23.662 16.493-4.3363 9.5459-2.6821 21.503 4.0643 29.469 3.5617 3.9073 7.4036 7.5522 11.066 11.367 2.3341 2.2135 4.3716 4.7925 6.9252 6.7392 2.6029 1.6378 6.0995 0.74463 7.9782-1.6109 5.2847-5.4343 10.691-10.754 15.908-16.252 6.7071-7.7549 8.5629-19.404 4.6047-28.917-3.7893-9.606-13.197-16.592-23.366-17.24-1.1694-0.10069-2.3452-0.09661-3.517-0.04847z" fill="none" opacity=".3" stop-color="#000000" stroke="url(#linearGradient69)" stroke-linecap="round" stroke-linejoin="round" style="-inkscape-stroke:none;font-variation-settings:normal"/><circle cx="64" cy="56" r="11" fill="url(#linearGradient1)" stop-color="#000000" style="-inkscape-stroke:none;font-variation-settings:normal"/><circle cx="64" cy="57" r="11" fill="#fafafa" opacity=".1" style="-inkscape-stroke:none;font-variation-settings:normal"/></svg>
