<?xml version="1.0" encoding="UTF-8"?>
<svg width="16" height="16" version="1.1" xml:space="preserve" xmlns="http://www.w3.org/2000/svg" xmlns:cc="http://creativecommons.org/ns#" xmlns:dc="http://purl.org/dc/elements/1.1/" xmlns:rdf="http://www.w3.org/1999/02/22-rdf-syntax-ns#" xmlns:xlink="http://www.w3.org/1999/xlink"><defs><linearGradient id="linearGradient3304" x1="24" x2="24" y1="7.2227" y2="40.912" gradientTransform="matrix(.2973 0 0 .2973 .86487 .86487)" gradientUnits="userSpaceOnUse"><stop stop-color="#fff" offset="0"/><stop stop-color="#fff" stop-opacity=".23529" offset=".063165"/><stop stop-color="#fff" stop-opacity=".15686" offset=".95056"/><stop stop-color="#fff" stop-opacity=".39216" offset="1"/></linearGradient><linearGradient id="linearGradient867" x1="7.905" x2="7.905" y1="1.5559" y2="14.46" gradientTransform="translate(-1.4305e-6)" gradientUnits="userSpaceOnUse"><stop stop-color="#efdfc4" offset="0"/><stop stop-color="#e7c591" offset="1"/></linearGradient><radialGradient id="radialGradient-9-0-5-6" cx="9.6924" cy="41.272" r="29.069" gradientTransform="matrix(1.2897 0 0 .77539 33.5 12.867)" gradientUnits="userSpaceOnUse"><stop offset="0"/><stop stop-opacity="0" offset="1"/></radialGradient><filter id="filter-10-6-6-8" x="-.2087" y="-.48" width="1.4174" height="1.96"><feGaussianBlur in="SourceGraphic" stdDeviation="2"/></filter><linearGradient id="linearGradient65" x1="-7.6893" x2="-7.6893" y1="2.0665" y2="14.458" gradientTransform="translate(14)" gradientUnits="userSpaceOnUse"><stop stop-color="#9bdb4d" offset="0"/><stop stop-color="#68b723" offset="1"/></linearGradient><linearGradient id="linearGradient69" x1="100.79" x2="100.79" y1="13.841" y2="33.724" gradientTransform="matrix(.33857 0 0 .33949 -26.126 -1.6204)" gradientUnits="userSpaceOnUse"><stop stop-color="#fff" offset="0"/><stop stop-color="#fff" stop-opacity=".23529" offset=".40658"/><stop stop-color="#fff" stop-opacity=".15686" offset=".72684"/><stop stop-color="#fff" stop-opacity=".39216" offset="1"/></linearGradient><linearGradient id="linearGradient68-7" x1="6.1625" x2="6.1625" y1="2.7618" y2="16.023" gradientTransform="matrix(.96882 0 0 .97366 .99762 -1.1826)" gradientUnits="userSpaceOnUse"><stop stop-color="#ed5353" offset="0"/><stop stop-color="#cf3137" offset=".53066"/><stop stop-color="#7a0000" offset="1"/></linearGradient><linearGradient id="linearGradient9" x1="8.0745" x2="8.0745" y1="9.7803" y2="16.114" gradientTransform="matrix(.96882 0 0 .97366 .99762 -1.1826)" gradientUnits="userSpaceOnUse"><stop stop-color="#a10705" stop-opacity=".5" offset="0"/><stop stop-color="#7a0000" offset="1"/></linearGradient><linearGradient id="linearGradient13" x1="26" x2="38" y1="26" y2="26" gradientTransform="matrix(.25 0 0 .25 -14 1.5818)" gradientUnits="userSpaceOnUse"><stop stop-color="#a10705" offset="0"/><stop stop-color="#7a0000" offset="1"/></linearGradient></defs><metadata><rdf:RDF><cc:Work rdf:about=""><dc:format>image/svg+xml</dc:format><dc:type rdf:resource="http://purl.org/dc/dcmitype/StillImage"/></cc:Work></rdf:RDF></metadata><rect x="1.5" y="1.5" width="13" height="13" rx="2" ry="2" color="#000000" fill="url(#linearGradient867)"/><g><path d="m6.3184 1.5c-0.03623 0.17882-0.022801 0.369 0.050781 0.55078l1.0898 2.7012-5.959 2.1426v2.0469l6.6797-2.4023 1.3008 3.2227 2.5977 1.293 2.4219-0.6543v-1.9922l-3.1465 0.84961-1.3594-3.3691 4.5059-1.6211v-0.76758c0-0.42729-0.13283-0.82221-0.35938-1.1465-0.015124 0.0045637-0.030009 0.0083576-0.044922 0.013672l-4.8242 1.7344-1.0488-2.6016h-1.9043z" fill="#d48e15" opacity=".3" stop-color="#000000" stroke-linecap="round" stroke-linejoin="round" style="-inkscape-stroke:none;font-variation-settings:normal"/><path d="m11.053 9.0508c-0.45439 0-7.0631 1.841-9.5527 2.5391v0.91016c0 1.108 0.892 2 2 2h9c0.26211 0 0.51125-0.04974 0.74023-0.14062-0.60759-1.8707-1.7794-5.3086-2.1875-5.3086z" fill="url(#linearGradient65)" stop-color="#000000" style="-inkscape-stroke:none;font-variation-settings:normal"/><path d="m9.3867 9.709-7.8867 2.127v0.66406c0 0.4602 0.15474 0.88346 0.41406 1.2207l3.7734-1.0195 0.56445 1.7988h2.0195l-0.72266-2.3008 2.5645-0.69141 1.207 2.9922h1.1797c0.29418 0 0.57315-0.062677 0.82422-0.17578l-1.3398-3.3223-2.5977-1.293z" fill="#3a9104" opacity=".3" stop-color="#000000" stroke-linecap="round" stroke-linejoin="round" style="-inkscape-stroke:none;font-variation-settings:normal"/></g><path d="m13.191 1.6211-11.691 4.2031v2.0469l12.979-4.666c-0.10716-0.73327-0.60947-1.3356-1.2852-1.584h-0.001953zm1.3086 5.666-13 3.5078v1.7051c0 0.095862 0.0066151 0.19101 0.019531 0.2832l4.8281-1.3027 0.94922 3.0195h2.0176l-1.1055-3.5215 6.291-1.6973v-1.9941z" fill="#fafafa" stop-color="#000000" stroke-linecap="round" stroke-linejoin="round"/><path d="m14.174 13.596c0.20624-0.31417 0.3261-0.69046 0.3261-1.0961v-9c0-1.108-0.892-2-2-2h-9c-1.108 0-2 0.892-2 2v8.0898" color="#000000" fill="none" opacity=".5" stop-color="#000000" stroke="#b6802e" stroke-linejoin="round" style="-inkscape-stroke:none;font-variation-settings:normal"/><path d="m1.5 11.59v0.91016c0 1.108 0.892 2 2 2h9" fill="none" stop-color="#000000" stroke="#3a9104" stroke-opacity=".5" style="-inkscape-stroke:none;font-variation-settings:normal"/><g stroke-linecap="round" stroke-linejoin="round"><path d="m7.2266 1.5 5.2461 13h0.027344c0.7061 0 1.3259-0.36255 1.6816-0.91211v-0.001953l-4.8789-12.086h-2.0762z" fill="#ffe16b" stop-color="#000000"/><path d="m12.5 14.5c0.7082 0 1.3282-0.36442 1.6834-0.91673" color="#000000" fill="none" stop-color="#000000" stroke="#d48e15" stroke-opacity=".5" style="-inkscape-stroke:none;font-variation-settings:normal"/><rect x="2.5" y="2.5" width="11" height="11" rx="1" ry="1" fill="none" opacity=".4" stroke="url(#linearGradient3304)"/></g><ellipse transform="matrix(.23636 0 0 .23636 -2.8727 .43636)" cx="46" cy="44.867" rx="11.5" ry="5" fill="url(#radialGradient-9-0-5-6)" filter="url(#filter-10-6-6-8)" opacity=".3" stroke-width="4.2308"/><path d="m7.9997 1.4913c-2.4802 1.214e-4 -4.4908 1.9415-4.4909 4.3363-2.5e-5 1.2171 0.52964 2.3781 1.4597 3.1996l2.2502 2.1731c0.43135 0.41656 1.1308 0.41659 1.5622 6.5e-5l2.2507-2.1732c0.93001-0.82151 1.4597-1.9826 1.4597-3.1996-1.25e-4 -2.395-2.011-4.3364-4.4915-4.3363z" fill="url(#linearGradient68-7)" stop-color="#000000" stroke="url(#linearGradient9)" stroke-linecap="round" stroke-linejoin="round" stroke-width=".99999" style="-inkscape-stroke:none;font-variation-settings:normal"/><path d="m7.8141 2.4791c-1.4069 0.052862-2.7071 1.0256-3.1218 2.3231-0.42454 1.2319-0.014683 2.6747 0.99572 3.5301 0.75784 0.72432 1.5012 1.4643 2.2681 2.1788 0.15941 0.033198 0.24539-0.18062 0.36474-0.25631 0.76883-0.74955 1.5533-1.4853 2.3133-2.2425 0.93718-1.0257 1.1078-2.6193 0.40552-3.8076-0.62358-1.1088-1.92-1.8057-3.2255-1.7255z" fill="none" opacity=".3" stop-color="#000000" stroke="url(#linearGradient69)" stroke-linecap="round" stroke-linejoin="round" style="-inkscape-stroke:none;font-variation-settings:normal"/><circle transform="rotate(-90)" cx="-6" cy="8.0818" r="1.5" fill="url(#linearGradient13)" style="-inkscape-stroke:none;font-variation-settings:normal"/><circle cx="8.0818" cy="7" r="1.5" fill="#fafafa" opacity=".1" style="-inkscape-stroke:none;font-variation-settings:normal"/></svg>
