<?xml version="1.0" encoding="UTF-8"?>
<svg width="32" height="32" version="1.1" xml:space="preserve" xmlns="http://www.w3.org/2000/svg" xmlns:cc="http://creativecommons.org/ns#" xmlns:dc="http://purl.org/dc/elements/1.1/" xmlns:rdf="http://www.w3.org/1999/02/22-rdf-syntax-ns#" xmlns:xlink="http://www.w3.org/1999/xlink"><defs><linearGradient id="linearGradient3688-166-749-654"><stop stop-color="#181818" offset="0"/><stop stop-color="#181818" stop-opacity="0" offset="1"/></linearGradient><linearGradient id="linearGradient4161-0-2" x1="24" x2="24" y1="6.24" y2="41.76" gradientTransform="matrix(.67568 0 0 .67568 -.21621 -.21621)" gradientUnits="userSpaceOnUse"><stop stop-color="#fff" offset="0"/><stop stop-color="#fff" stop-opacity=".23529" offset=".041667"/><stop stop-color="#fff" stop-opacity=".15686" offset=".95833"/><stop stop-color="#fff" stop-opacity=".39216" offset="1"/></linearGradient><linearGradient id="linearGradient930-9-2" x1="16.768" x2="16.768" y1="2.7677" y2="29.897" gradientUnits="userSpaceOnUse"><stop stop-color="#efdfc4" offset="0"/><stop stop-color="#e7c591" offset="1"/></linearGradient><radialGradient id="radialGradient2976-3-3" cx="4.993" cy="43.5" r="2.5" gradientTransform="matrix(2.0038 0 0 1.4 27.988 -17.4)" gradientUnits="userSpaceOnUse" xlink:href="#linearGradient3688-166-749-654"/><radialGradient id="radialGradient2978-2-5" cx="4.993" cy="43.5" r="2.5" gradientTransform="matrix(2.0038 0 0 1.4 -20.012 -104.4)" gradientUnits="userSpaceOnUse" xlink:href="#linearGradient3688-166-749-654"/><linearGradient id="linearGradient963" x1="25.058" x2="25.058" y1="47.028" y2="39.999" gradientUnits="userSpaceOnUse"><stop stop-color="#181818" stop-opacity="0" offset="0"/><stop stop-color="#181818" offset=".5"/><stop stop-color="#181818" stop-opacity="0" offset="1"/></linearGradient><radialGradient id="radialGradient-9-0-5-6" cx="9.6924" cy="41.272" r="29.069" gradientTransform="matrix(1.2897 0 0 .77539 54.287 10.867)" gradientUnits="userSpaceOnUse"><stop offset="0"/><stop stop-opacity="0" offset="1"/></radialGradient><filter id="filter-10-6-6-8" x="-.2087" y="-.48" width="1.4174" height="1.96"><feGaussianBlur in="SourceGraphic" stdDeviation="2"/></filter><linearGradient id="linearGradient2" x1="-17.895" x2="-17.895" y1="4.9417" y2="31.92" gradientTransform="translate(34.787 -2)" gradientUnits="userSpaceOnUse"><stop stop-color="#9bdb4d" offset="0"/><stop stop-color="#68b723" offset="1"/></linearGradient><linearGradient id="linearGradient69" x1="61.019" x2="61.019" y1="12.6" y2="32.466" gradientTransform="matrix(.70319 0 0 .70508 -26.967 -1.9038)" gradientUnits="userSpaceOnUse"><stop stop-color="#fff" offset="0"/><stop stop-color="#fff" stop-opacity=".23529" offset=".40658"/><stop stop-color="#fff" stop-opacity=".15686" offset=".72684"/><stop stop-color="#fff" stop-opacity=".39216" offset="1"/></linearGradient><linearGradient id="linearGradient13" x1="26" x2="38" y1="26" y2="26" gradientTransform="matrix(.5 0 0 .5 -29 3)" gradientUnits="userSpaceOnUse"><stop stop-color="#a10705" offset="0"/><stop stop-color="#7a0000" offset="1"/></linearGradient><linearGradient id="linearGradient68-3" x1="31.998" x2="31.998" y1="14.207" y2="67.783" gradientTransform="matrix(.96882 0 0 .97366 .99762 -1.1826)" gradientUnits="userSpaceOnUse"><stop stop-color="#ed5353" offset="0"/><stop stop-color="#cf3137" offset=".53066"/><stop stop-color="#7a0000" offset="1"/></linearGradient><linearGradient id="linearGradient9" x1="38.689" x2="38.689" y1="42.62" y2="67.747" gradientTransform="matrix(.96882 0 0 .97366 .99762 -1.1826)" gradientUnits="userSpaceOnUse"><stop stop-color="#a10705" stop-opacity=".5" offset="0"/><stop stop-color="#7a0000" offset="1"/></linearGradient><linearGradient id="linearGradient4" x1="-13.13" x2="-13.13" y1="20.847" y2="47.558" gradientTransform="translate(33.158 -18.029)" gradientUnits="userSpaceOnUse"><stop stop-color="#ffe16b" offset="0"/><stop stop-color="#f9c440" offset="1"/></linearGradient><linearGradient id="linearGradient8" x1="24" x2="24" y1="6.24" y2="41.76" gradientTransform="matrix(.67568 0 0 .67568 -.21621 -.21621)" gradientUnits="userSpaceOnUse"><stop stop-color="#fff" offset="0"/><stop stop-color="#fff" stop-opacity=".23529" offset=".0049555"/><stop stop-color="#fff" stop-opacity=".15686" offset=".95833"/><stop stop-color="#fff" stop-opacity=".39216" offset="1"/></linearGradient></defs><metadata><rdf:RDF><cc:Work rdf:about=""><dc:format>image/svg+xml</dc:format><dc:type rdf:resource="http://purl.org/dc/dcmitype/StillImage"/></cc:Work></rdf:RDF></metadata><g transform="matrix(.7 0 0 .33333 -.8 15.333)"><g transform="matrix(1.0526 0 0 1.2857 -1.2632 -13.429)" opacity=".4"><rect x="38" y="40" width="5" height="7" fill="url(#radialGradient2976-3-3)"/><rect transform="scale(-1)" x="-10" y="-47" width="5" height="7" fill="url(#radialGradient2978-2-5)"/><rect x="10" y="40" width="28" height="7" fill="url(#linearGradient963)"/></g></g><rect x="2.5" y="2.5" width="27" height="27" rx="3" ry="3" color="#000000" fill="url(#linearGradient930-9-2)" stop-color="#000000" style="font-variation-settings:normal"/><path d="m22.539 18.385-20.039 4.9062v3.209c0 1.662 1.338 3 3 3h21c0.14447 0 0.28688-0.009743 0.42578-0.029297l-4.3867-11.086z" fill="url(#linearGradient2)" stop-color="#000000" style="-inkscape-stroke:none;font-variation-settings:normal"/><path d="m15.643 0.25133 14.247 35.304" fill="#ffe16b" stop-color="#000000" stroke-linecap="round" stroke-linejoin="round"/><g stroke-linecap="round" stroke-linejoin="round"><path d="m19.877 17.084c-0.15025-0.0057-0.30473 0.0272-0.46484 0.12109l-16.912 4.5625v4.7324c0 0.50244 0.12134 0.97542 0.33789 1.3906l8.5677-2.3307 1.2333 3.9401h6.826l-1.7656-5.6191c0.96112-0.27989 1.948-0.51219 2.916-0.7793 0.8617 2.1329 1.7245 4.2656 2.5859 6.3984h3.2988c0.5642 0 1.0912-0.15511 1.541-0.42383-2.0215-2.8829-4.1704-5.6601-5.3574-7.166 0.05984-0.25751 0.02701-0.5404-0.10742-0.8125l-1.3965-3.459c-0.43591-0.16682-0.85198-0.5377-1.3027-0.55469z" fill="#3a9104" opacity=".15" stop-color="#000000" style="-inkscape-stroke:none;font-variation-settings:normal"/><path d="m20.945 17.834-18.445 4.9707v3.6953c0 0.14919 0.01042 0.29622 0.03125 0.43945l9.2035-2.4908a0.26072 0.26072 28.654 0 1 0.3167 0.17306l1.5427 4.8783h4.8238l-1.9844-6.3125 4.7793-1.2832 3.0645 7.5957h2.2227c0.17295 0 0.34302-0.01513 0.50781-0.04297l-4.7266-7.8398 0.17188-0.04688z" fill="#3a9104" opacity=".3" stop-color="#000000" style="-inkscape-stroke:none;font-variation-settings:normal"/><path d="m12.664 2.5c-0.041441 0.40104 5.9e-4 0.81209 0.14453 1.207 0.46699 1.1677 0.93412 2.3347 1.4023 3.502-3.9048 1.4015-7.8096 2.8027-11.711 4.2129v6.3711c4.6488-1.6741 9.3007-3.3398 13.951-5.0098 0.63632 1.5806 1.2725 3.16 1.9102 4.7402l1.8906-0.50977 6.2031 4.5137c0.01096-0.0059 0.022183-0.011108 0.033203-0.017578 1.0022-0.2766 2.0068-0.54611 3.0117-0.81445v-6.2129c-1.7695 0.47792-3.5384 0.95792-5.3086 1.4336-0.69496-1.7225-1.3918-3.4441-2.0879-5.166 2.4661-0.88733 4.9319-1.7765 7.3965-2.668v-2.582c0-1.4505-1.0187-2.6546-2.3828-2.9375-0.86708 0.32224-1.7318 0.65484-2.6074 0.94531-1.5528 0.55974-3.1048 1.1176-4.6582 1.6758-0.36263-0.8946-0.72655-1.7892-1.0898-2.6836h-6.0977z" fill="#cfa25e" opacity=".15" stop-color="#000000" style="-inkscape-stroke:none;font-variation-settings:normal"/><path d="m13.66 2.5c-0.043847 0.33118-0.005144 0.67789 0.12891 1.0098l1.3789 3.418 3.7676-1.3535-1.2402-3.0742h-4.0352zm14.738 0.67383-25.898 9.3086v4.25l14.518-5.2188 2.3203 5.7461 0.91406-0.24609 0.5332-6.8535 8.7148-3.1328v-1.5273c0-0.94071-0.42813-1.7769-1.1016-2.3262zm1.1016 12.346-5.3594 1.4453 1.5078 3.7363 3.8516-1.0391v-4.1426z" fill="#b6802e" opacity=".2" stop-color="#000000" style="-inkscape-stroke:none;font-variation-settings:normal"/></g><path d="m27.236 2.5898-24.736 8.8926v4.25l27-9.7051v-0.52734c0-1.4069-0.95925-2.5827-2.2617-2.9102h-0.001953zm2.2637 11.93-5.3594 1.4453 1.5078 3.7363 3.8516-1.0391v-4.1426zm-9.248 2.4941-17.752 4.7891v4.1445l9.1035-2.457a1.0419 1.0419 0 0 1 1.2656 0.69336l1.6699 5.3164h4.1934l-2.2988-7.3125 5.3262-1.4375-1.5078-3.7363z" fill="#fafafa" stop-color="#000000" stroke-linecap="round" stroke-linejoin="round"/><path d="m14.395 2.5 10.895 27h1.2109c1.0717 0 2.0087-0.5557 2.5391-1.3965l-10.332-25.604h-4.3125z" fill="#ffe16b" stop-color="#000000" stroke-linecap="round" stroke-linejoin="round"/><ellipse transform="matrix(.49091 0 0 .49091 -16.786 1.2727)" cx="66.787" cy="42.867" rx="11.5" ry="5" fill="url(#radialGradient-9-0-5-6)" filter="url(#filter-10-6-6-8)" opacity=".3" stroke-width="2.037"/><g fill="none"><rect x="3.5" y="3.5" width="25" height="25" rx="2" ry="2" opacity=".4" stroke="url(#linearGradient4161-0-2)" stroke-linecap="round" stroke-linejoin="round"/><path d="m14.395 2.5h-8.8945c-1.662 0-3 1.338-3 3v20.453m26.667 1.9264c0.21281-0.41253 0.33275-0.88157 0.33275-1.3794v-21c0-1.662-1.338-3-3-3h-7.793" color="#000000" opacity=".5" stop-color="#000000" stroke="#b6802e" stroke-linejoin="round" style="-inkscape-stroke:none;font-variation-settings:normal"/><path d="m2.5 25.925v0.57536c0 1.662 1.338 3 3 3h19.669" stop-color="#000000" stroke="#3a9104" stroke-opacity=".5" style="-inkscape-stroke:none;font-variation-settings:normal"/></g><path d="m14.395 2.5 10.895 27h1.2109c1.0717 0 2.0087-0.5557 2.5391-1.3965l-10.332-25.604z" fill="url(#linearGradient4)" stop-color="#000000" stroke="#d48e15" stroke-linecap="round" stroke-linejoin="round" stroke-opacity=".5" style="-inkscape-stroke:none;font-variation-settings:normal"/><path d="m25.965 28.5c0.68209 0.04593 1.4311-0.04857 1.9277-0.56641-3.2871-8.1445-6.5742-16.289-9.8613-24.434h-2.1543c3.3626 8.3333 6.7253 16.667 10.088 25z" fill="none" opacity=".6" stop-color="#000000" stroke="url(#linearGradient8)" stroke-linecap="round" style="-inkscape-stroke:none;font-variation-settings:normal"/><g><path d="m15.68 11.752c-2.4195 0.08013-4.9136 1.3638-5.9864 3.6045-0.93966 1.901-0.44755 4.3337 1.0638 5.7963 0.95277 0.9016 2.0078 1.6886 2.9969 2.5499 0.57836 0.50581 1.2266 1.0251 2.0342 1.0404 0.84935 0.08325 1.6746-0.29122 2.2675-0.88548 1.0853-0.92478 2.2184-1.7982 3.2599-2.7717 1.3967-1.4327 1.9018-3.709 1.067-5.555-1.1028-2.5521-4.0227-3.9095-6.7028-3.7791z" fill="#ff8c82" opacity=".12572" style="-inkscape-stroke:none;font-variation-settings:normal"/><path d="m15.689 12.244c-2.2498 0.07269-4.3777 1.2501-5.3493 2.9452-1.042 1.7351-0.78732 3.9448 0.63282 5.4812 0.54874 0.59636 1.2476 1.08 1.8642 1.6254 0.65412 0.53148 1.2741 1.0947 1.9498 1.6062 0.71397 0.51338 1.8675 0.46807 2.5412-0.07586 1.134-0.94571 2.2752-1.8867 3.3974-2.842 1.478-1.3775 1.972-3.4264 1.2425-5.1734-0.71358-1.8139-2.6993-3.2198-4.9597-3.5058-0.43547-0.05963-0.87817-0.07661-1.3188-0.06085z" fill="#ff8c82" opacity=".33404" style="-inkscape-stroke:none;font-variation-settings:normal"/><path transform="matrix(.36163 0 0 .30214 4.4278 9.041)" d="m31.999 12c-8.8359 4.48e-4 -15.999 7.1632-15.999 15.999-8.9e-5 4.4905 1.8869 8.7744 5.2001 11.805l8.0165 8.0179a3.9351 3.9351 0.0024484 0 0 5.5652 2.38e-4l8.0181-8.0181c3.3132-3.0311 5.2002-7.3149 5.2001-11.805-4.47e-4 -8.8366-7.1643-16-16.001-15.999z" fill="#ed5353" opacity=".3" style="-inkscape-stroke:none;font-variation-settings:normal"/><path transform="matrix(.46847 0 0 .4601 1.0094 -.026093)" d="m31.999 12c-8.8359 4.48e-4 -15.999 7.1632-15.999 15.999-8.9e-5 4.4905 1.8869 8.7744 5.2001 11.805l8.0165 8.0179a3.9351 3.9351 0.0024484 0 0 5.5652 2.38e-4l8.0181-8.0181c3.3132-3.0311 5.2002-7.3149 5.2001-11.805-4.47e-4 -8.8366-7.1643-16-16.001-15.999z" fill="url(#linearGradient68-3)" stop-color="#000000" stroke="url(#linearGradient9)" stroke-linecap="round" stroke-linejoin="round" stroke-width="2.1539" style="-inkscape-stroke:none;font-variation-settings:normal"/></g><path d="m15.677 6.4944c-2.5158 0.091581-4.8664 1.7752-5.738 4.0924-0.90393 2.2547-0.32961 4.9824 1.4048 6.7047 1.3907 1.3311 2.7346 2.712 4.1357 4.031 0.40758 0.35772 1.0176 0.1454 1.3137-0.24677 1.3672-1.3562 2.7628-2.6868 4.1145-4.0568 1.6663-1.8499 2.0558-4.6789 0.95107-6.8975-1.0691-2.2698-3.5948-3.7706-6.1399-3.6281z" fill="none" opacity=".3" stop-color="#000000" stroke="url(#linearGradient69)" stroke-linecap="round" stroke-linejoin="round" style="-inkscape-stroke:none;font-variation-settings:normal"/><circle transform="rotate(-90)" cx="-13" cy="16" r="3" fill="url(#linearGradient13)" style="-inkscape-stroke:none;font-variation-settings:normal"/><circle cx="16" cy="14" r="3" fill="#fafafa" opacity=".1" style="-inkscape-stroke:none;font-variation-settings:normal"/></svg>
